<?xml version="1.0" standalone="no"?>
<!DOCTYPE svg PUBLIC "-//W3C//DTD SVG 20010904//EN"
 "http://www.w3.org/TR/2001/REC-SVG-20010904/DTD/svg10.dtd">
<svg version="1.0" xmlns="http://www.w3.org/2000/svg"
 width="256.000000pt" height="256.000000pt" viewBox="0 0 256.000000 256.000000"
 preserveAspectRatio="xMidYMid meet">

<g transform="translate(0.000000,256.000000) scale(0.100000,-0.100000)"
fill="#000000" stroke="none">
<path d="M1116 2549 c-484 -67 -895 -403 -1046 -857 -50 -152 -64 -242 -64
-412 0 -170 14 -260 64 -412 122 -366 432 -676 798 -798 152 -50 242 -64 412
-64 170 0 260 14 412 64 366 122 676 432 798 798 50 152 64 242 64 412 0 170
-14 260 -64 412 -103 307 -345 584 -641 734 -85 42 -217 87 -324 109 -96 20
-314 28 -409 14z m84 -404 l0 -255 -78 0 c-79 0 -293 18 -301 26 -9 8 70 177
118 251 61 95 128 162 201 202 30 17 56 31 58 31 1 0 2 -115 2 -255z m317 153
c29 -28 76 -86 104 -130 52 -81 127 -244 117 -254 -9 -9 -185 -23 -285 -24
l-93 0 0 255 0 255 52 -26 c28 -14 75 -49 105 -76z m-693 -29 c-45 -68 -105
-185 -134 -266 -20 -55 -26 -63 -49 -63 -31 0 -219 44 -228 54 -11 10 124 141
207 200 68 50 230 139 238 132 1 -2 -14 -27 -34 -57z m1020 -11 c88 -52 178
-123 251 -199 l70 -73 -93 -22 c-51 -13 -112 -24 -134 -26 l-41 -3 -32 80
c-40 101 -83 185 -129 254 -20 29 -36 55 -36 56 0 7 92 -36 144 -67z m-1491
-407 c13 -5 77 -21 143 -36 65 -15 120 -28 122 -29 1 -2 -7 -55 -18 -119 -11
-64 -23 -159 -26 -212 l-7 -95 -207 0 -207 0 9 68 c17 131 61 269 119 376 32
60 35 61 72 47z m1945 -88 c58 -126 83 -210 100 -340 l9 -63 -207 0 -207 0 -7
98 c-4 53 -15 147 -26 207 -10 61 -16 113 -12 116 4 3 45 14 92 23 47 9 108
23 135 30 80 23 78 24 123 -71z m-1230 -20 l132 -6 0 -188 0 -189 -240 0 -240
0 0 43 c0 51 24 231 40 306 l12 54 82 -7 c44 -3 141 -9 214 -13z m732 -35 c16
-74 40 -255 40 -305 l0 -43 -240 0 -240 0 0 190 0 190 108 1 c59 1 136 5 172
9 36 4 84 8 107 8 l41 2 12 -52z m-1226 -600 c4 -51 16 -144 27 -207 10 -63
18 -115 17 -117 -2 -1 -41 -9 -88 -18 -47 -9 -116 -25 -155 -35 -38 -11 -70
-19 -71 -18 -1 1 -16 30 -33 64 -57 115 -92 228 -109 356 l-9 67 207 0 207 0
7 -92z m626 -91 l0 -184 -127 -6 c-71 -4 -167 -10 -214 -13 l-86 -7 -11 44
c-14 54 -42 267 -42 315 l0 34 240 0 240 0 0 -183z m640 146 c0 -49 -26 -243
-42 -311 -11 -50 -13 -53 -37 -48 -14 2 -110 10 -213 17 l-188 13 0 183 0 183
240 0 240 0 0 -37z m558 -25 c-9 -74 -25 -145 -45 -208 -23 -72 -95 -220 -107
-220 -6 0 -52 11 -103 24 -50 14 -111 27 -135 31 -72 11 -71 8 -49 136 11 63
23 156 27 207 l7 92 207 0 207 0 -9 -62z m-1198 -713 l0 -255 -27 11 c-115 43
-260 220 -329 402 -14 37 -24 70 -22 72 7 7 189 22 286 24 l92 1 0 -255z m395
244 c77 -6 142 -13 144 -15 2 -1 -9 -34 -23 -71 -69 -182 -214 -359 -329 -402
l-27 -11 0 255 0 255 47 0 c26 0 110 -5 188 -11z m-904 -105 c31 -85 99 -216
144 -280 19 -27 33 -50 30 -52 -8 -8 -173 81 -248 136 -82 59 -221 197 -213
211 4 7 45 17 201 50 22 5 44 8 50 7 5 -2 21 -34 36 -72z m1353 41 c60 -13
111 -27 114 -29 9 -10 -140 -154 -217 -209 -74 -54 -238 -143 -246 -135 -3 2
11 26 30 53 45 62 127 225 150 293 20 62 17 62 169 27z"/>
</g>
</svg>
